<svg width="132" height="60" viewBox="0 0 132 60" fill="none" xmlns="http://www.w3.org/2000/svg">
<rect x="0.5" y="8.5" width="131" height="43" rx="7.5" stroke="#FB8F1D"/>
<path d="M47.1985 35H53.7876V33.5831H48.8445V24.0909H47.1985V35ZM58.9838 35.1651C61.2903 35.1651 62.7978 33.4766 62.7978 30.9464C62.7978 28.4002 61.2903 26.7116 58.9838 26.7116C56.6774 26.7116 55.1699 28.4002 55.1699 30.9464C55.1699 33.4766 56.6774 35.1651 58.9838 35.1651ZM58.9892 33.8281C57.4817 33.8281 56.7786 32.5124 56.7786 30.9411C56.7786 29.375 57.4817 28.0433 58.9892 28.0433C60.486 28.0433 61.1891 29.375 61.1891 30.9411C61.1891 32.5124 60.486 33.8281 58.9892 33.8281ZM68.0059 38.2227C70.0887 38.2227 71.6974 37.2692 71.6974 35.1811V26.8182H70.1366V28.1445H70.0194C69.7371 27.6385 69.1725 26.7116 67.6491 26.7116C65.6729 26.7116 64.2187 28.2724 64.2187 30.8771C64.2187 33.4872 65.7048 34.8775 67.6384 34.8775C69.1405 34.8775 69.7211 34.0305 70.0088 33.5085H70.11V35.1172C70.11 36.3796 69.2311 36.9389 68.0219 36.9389C66.6956 36.9389 66.1789 36.2731 65.8966 35.8203L64.5276 36.3849C64.9591 37.3704 66.051 38.2227 68.0059 38.2227ZM67.99 33.5565C66.5677 33.5565 65.8273 32.4645 65.8273 30.8558C65.8273 29.2844 66.5518 28.0646 67.99 28.0646C69.3802 28.0646 70.126 29.1992 70.126 30.8558C70.126 32.5444 69.3643 33.5565 67.99 33.5565ZM73.8334 35H75.426V26.8182H73.8334V35ZM74.6377 25.5558C75.1863 25.5558 75.6444 25.1296 75.6444 24.6076C75.6444 24.0856 75.1863 23.6541 74.6377 23.6541C74.0837 23.6541 73.6309 24.0856 73.6309 24.6076C73.6309 25.1296 74.0837 25.5558 74.6377 25.5558ZM79.1614 30.142C79.1614 28.837 79.9604 28.0913 81.0684 28.0913C82.1497 28.0913 82.8049 28.7997 82.8049 29.9876V35H84.3976V29.7958C84.3976 27.7717 83.2843 26.7116 81.6117 26.7116C80.3812 26.7116 79.5769 27.2816 79.1987 28.1499H79.0975V26.8182H77.5687V35H79.1614V30.142Z" fill="#FB8F1D"/>
</svg>
