<svg width="132" height="60" viewBox="0 0 132 60" fill="none" xmlns="http://www.w3.org/2000/svg">
<rect y="8" width="132" height="44" rx="8" fill="#FB8F1D"/>
<path d="M37.1985 35H38.8445V30.8718H41.0817C41.119 30.8718 41.1509 30.8718 41.1882 30.8718L43.4041 35H45.2791L42.8608 30.5842C44.1978 30.0888 44.8636 28.9755 44.8636 27.5107C44.8636 25.5025 43.6172 24.0909 41.087 24.0909H37.1985V35ZM38.8445 29.4549V25.5025H40.9112C42.5359 25.5025 43.207 26.2749 43.207 27.5107C43.207 28.7411 42.5359 29.4549 40.9325 29.4549H38.8445ZM50.1624 35.1651C51.9468 35.1651 53.2093 34.2862 53.5715 32.9545L52.064 32.6829C51.7764 33.4553 51.0839 33.8494 50.1784 33.8494C48.8147 33.8494 47.8985 32.9652 47.8559 31.3885H53.6727V30.8239C53.6727 27.8675 51.9042 26.7116 50.0505 26.7116C47.7707 26.7116 46.2686 28.4482 46.2686 30.9624C46.2686 33.5032 47.7494 35.1651 50.1624 35.1651ZM47.8612 30.1953C47.9252 29.0341 48.7668 28.0273 50.0612 28.0273C51.297 28.0273 52.1066 28.9435 52.1119 30.1953H47.8612ZM58.8702 38.2227C60.9529 38.2227 62.5616 37.2692 62.5616 35.1811V26.8182H61.0009V28.1445H60.8837C60.6014 27.6385 60.0368 26.7116 58.5133 26.7116C56.5371 26.7116 55.0829 28.2724 55.0829 30.8771C55.0829 33.4872 56.5691 34.8775 58.5027 34.8775C60.0048 34.8775 60.5854 34.0305 60.873 33.5085H60.9743V35.1172C60.9743 36.3796 60.0953 36.9389 58.8862 36.9389C57.5598 36.9389 57.0431 36.2731 56.7608 35.8203L55.3919 36.3849C55.8233 37.3704 56.9153 38.2227 58.8702 38.2227ZM58.8542 33.5565C57.432 33.5565 56.6916 32.4645 56.6916 30.8558C56.6916 29.2844 57.416 28.0646 58.8542 28.0646C60.2445 28.0646 60.9902 29.1992 60.9902 30.8558C60.9902 32.5444 60.2285 33.5565 58.8542 33.5565ZM64.6976 35H66.2903V26.8182H64.6976V35ZM65.502 25.5558C66.0506 25.5558 66.5087 25.1296 66.5087 24.6076C66.5087 24.0856 66.0506 23.6541 65.502 23.6541C64.948 23.6541 64.4952 24.0856 64.4952 24.6076C64.4952 25.1296 64.948 25.5558 65.502 25.5558ZM74.564 28.8157C74.2338 27.5426 73.2377 26.7116 71.4692 26.7116C69.6208 26.7116 68.3105 27.6864 68.3105 29.1353C68.3105 30.2965 69.0136 31.0689 70.5477 31.4098L71.9326 31.7134C72.721 31.8892 73.0885 32.2408 73.0885 32.7521C73.0885 33.386 72.412 33.8814 71.368 33.8814C70.4145 33.8814 69.8019 33.4712 69.6102 32.6669L68.0708 32.9013C68.3371 34.3501 69.5409 35.1651 71.3786 35.1651C73.3548 35.1651 74.7238 34.1158 74.7238 32.6349C74.7238 31.479 73.9887 30.7653 72.4866 30.419L71.1869 30.1207C70.2867 29.9077 69.8978 29.604 69.9031 29.0501C69.8978 28.4215 70.5796 27.9741 71.4852 27.9741C72.4759 27.9741 72.934 28.5227 73.1205 29.0714L74.564 28.8157ZM80.2942 26.8182H78.6163V24.858H77.0236V26.8182H75.8251V28.0966H77.0236V32.9279C77.0183 34.4141 78.1529 35.1332 79.41 35.1065C79.916 35.1012 80.2569 35.0053 80.4434 34.9361L80.1557 33.6204C80.0492 33.6417 79.8521 33.6896 79.5964 33.6896C79.0797 33.6896 78.6163 33.5192 78.6163 32.5977V28.0966H80.2942V26.8182ZM85.4944 35.1651C87.2789 35.1651 88.5413 34.2862 88.9035 32.9545L87.396 32.6829C87.1084 33.4553 86.4159 33.8494 85.5104 33.8494C84.1468 33.8494 83.2306 32.9652 83.1879 31.3885H89.0047V30.8239C89.0047 27.8675 87.2362 26.7116 85.3825 26.7116C83.1027 26.7116 81.6006 28.4482 81.6006 30.9624C81.6006 33.5032 83.0814 35.1651 85.4944 35.1651ZM83.1933 30.1953C83.2572 29.0341 84.0988 28.0273 85.3932 28.0273C86.629 28.0273 87.4387 28.9435 87.444 30.1953H83.1933ZM90.7718 35H92.3645V30.0036C92.3645 28.9329 93.1902 28.1605 94.3194 28.1605C94.6497 28.1605 95.0225 28.2191 95.1504 28.2564V26.733C94.9906 26.7116 94.6763 26.6957 94.4739 26.6957C93.5151 26.6957 92.6948 27.239 92.3965 28.1179H92.3113V26.8182H90.7718V35Z" fill="white"/>
</svg>
